<svg xmlns="http://www.w3.org/2000/svg" width="211.676" height="180.51" viewBox="0 0 211.676 180.51">
<path data-name="Path 6496" d="M1545.4,3188.843q.973-.155,1.948-.338c32.088-6.038,38.9-30.423,25.166-56.477-7.282-13.813-7.073-28.951-7.666-43.894a133.306,133.306,0,0,0-1.6-17.612,57.928,57.928,0,0,0-5.237-16.388c-15.639-30.935-56.333-18.6-83.15-26.351-17.866-5.167-41.258-23.608-60.749-17.162a27.775,27.775,0,0,0-11.363,7.377l-.035.037c-22.286,23.22-3.131,59.023-14.331,85.916h0c-10.232,24.568-37.623,50.627-6.128,73.977,22.263,16.506,52.918-.919,77.53.242C1488.516,3179.524,1516.372,3193.471,1545.4,3188.843Z" transform="translate(-1367.562 -3009.271)" fill="#5dc0eb"></path>
</svg>