<svg xmlns="http://www.w3.org/2000/svg" width="224.478" height="187.234" viewBox="0 0 224.478 187.234">
<path id="Path_6492" data-name="Path 6492" d="M2000.44,3140.881c7.3,4.453,16.253,5.625,23.486,10.187,18.156,11.45,19.751,39.886,38.382,50.545,12.536,7.171,28.526,3.558,41.5-2.782s24.891-15.254,38.871-18.881a70.592,70.592,0,0,1,9.807-1.75c9.758-1.106,19.757-.784,29.451-2.512q1.511-.268,3.027-.637c12-2.918,23.82-10.484,26.094-22.429,2.437-12.8-6.5-23.471-14.41-34.6a82.2,82.2,0,0,1-7.6-12.377c-7.893-16.789-4.368-36.947-9.732-54.568a49.962,49.962,0,0,0-1.757-4.878,43.76,43.76,0,0,0-11.993-16.175c-11.32-9.676-27.287-14.139-41.775-10.365-20.936,5.454-39.5,25.615-60.331,19.764-12.481-3.506-25.054-16.036-36.085-9.225-6.7,4.135-7.922,13.33-7.366,21.182s2.086,16.226-1.5,23.233c-2.661,5.2-7.507,8.471-12.537,11.65a71.032,71.032,0,0,0-10.115,7.136C1982.252,3105.827,1984.708,3131.286,2000.44,3140.881Z" transform="translate(-1986.99 -3018.326)" fill="#ffae25"></path>
</svg>