<svg xmlns="http://www.w3.org/2000/svg" width="249.209" height="149.56" viewBox="0 0 249.209 149.56">
<path id="Path_6490" data-name="Path 6490" d="M1884.819,3084.956c-10.335-5.524-22.881-7.4-31.256-15.591-6.924-6.774-9.833-16.852-16.747-23.637-9.8-9.618-25.377-10.417-38.777-7.424s-26.008,9.117-39.551,11.379c-17.556,2.932-35.537-.793-53.309.183-10.234.562-21.079,3.373-29.59,8.854-6.271,4.037-11.275,9.524-13.834,16.627-.049.137-.1.274-.145.411-4.881,14.2,1.713,30.1,11.37,41.649,7.976,9.538,17.935,17.19,26.853,25.85,1.985,1.927,3.918,3.9,5.766,5.964,11.26,12.546,20.186,28.72,35.953,34.688,12.583,4.763,26.755,1.761,39.382-2.886s24.846-10.931,38.165-12.833c20.792-2.969,42.926,4.946,62.54-2.562a40.045,40.045,0,0,0,8.447-4.471,44.681,44.681,0,0,0,19.06-34.546,46.693,46.693,0,0,0-24.327-41.655Z" transform="translate(-1659.961 -3036.76)" fill="#ff7979"></path>
</svg>