<svg xmlns="http://www.w3.org/2000/svg" width="224.42" height="187.085" viewBox="0 0 224.42 187.085">
<path id="Path_6501" data-name="Path 6501" d="M2314.57,3141.763a64.343,64.343,0,0,0,10.667,3.2c34.906,7.424,41.856,40.455,72.141,53.454l.366.156a58.352,58.352,0,0,0,69.74-19.3q1.245-1.7,2.309-3.436c16.09-26.184,2.95-58.262,15.606-85.555,8.385-18.084,43.148-45.46,22.28-67.246h0c-11.741-12.257-37.371-5.62-59.5-.617-10.321,2.333-19.881,4.311-26.914,3.85-29.864-1.956-59.547-7.536-87.106,7.684a75.788,75.788,0,0,0-15.714,11.82C2289.813,3073.355,2273.483,3125.2,2314.57,3141.763Z" transform="translate(-2289.83 -3016.07)" fill="#d481f7"></path>
</svg>